<?xml version="1.0" encoding="UTF-8"?>
<svg width="34px" height="34px" viewBox="0 0 34 34" version="1.1" xmlns="http://www.w3.org/2000/svg" xmlns:xlink="http://www.w3.org/1999/xlink">
    <!-- Generator: Sketch 52.5 (67469) - http://www.bohemiancoding.com/sketch -->
    <title>Fill 65</title>
    <desc>Created with Sketch.</desc>
    <g id="Design" stroke="none" stroke-width="1" fill="none" fill-rule="evenodd">
        <g id="Contact" transform="translate(-383.000000, -491.000000)" fill="#FFFFFF">
            <path d="M414,511 L410,508.5 L414,506 L414,511 Z M402,521 L402,514.217019 L408.087061,510 L413,513.403654 L402,521 Z M399.999486,512 L395,508.5 L399.999486,505 L405,508.5 L399.999486,512 Z M398,521 L387,513.403654 L391.91396,510 L398,514.217019 L398,521 Z M386,506 L390,508.5 L386,511 L386,506 Z M398,495 L398,501.782329 L391.91396,506 L387,502.595616 L398,495 Z M402,495 L413,502.595616 L408.087061,506 L402,501.782329 L402,495 Z M416.98725,502.630125 C416.984062,502.607813 416.97875,502.587625 416.975562,502.566375 C416.968125,502.524937 416.960688,502.4835 416.950062,502.444187 C416.943688,502.41975 416.934125,502.396375 416.926687,502.373 C416.915,502.336875 416.903312,502.301812 416.8895,502.26675 C416.879937,502.242312 416.86825,502.217875 416.856562,502.195562 C416.841687,502.161563 416.82575,502.129687 416.806625,502.098875 C416.793875,502.0755 416.779,502.053187 416.765188,502.030875 C416.746062,502.000063 416.725875,501.970312 416.703562,501.941625 C416.687625,501.920375 416.670625,501.899125 416.653625,501.878937 C416.63025,501.851312 416.605813,501.82475 416.580312,501.79925 C416.561187,501.780125 416.543125,501.759938 416.522938,501.742937 C416.495312,501.7185 416.467688,501.695125 416.440063,501.672812 C416.41775,501.655813 416.3965,501.638812 416.374188,501.622875 C416.365688,501.617563 416.35825,501.610125 416.34975,501.604812 L400.810687,491.245437 C400.319813,490.918187 399.68125,490.918187 399.189313,491.245437 L383.651313,501.604812 C383.642812,501.610125 383.635375,501.617563 383.626875,501.622875 C383.6035,501.638812 383.58225,501.655813 383.561,501.672812 C383.532312,501.695125 383.504688,501.7185 383.478125,501.742937 C383.457937,501.759938 383.438813,501.780125 383.419688,501.79925 C383.394187,501.82475 383.36975,501.851312 383.347438,501.878937 C383.329375,501.899125 383.312375,501.920375 383.296438,501.941625 C383.275188,501.970312 383.255,502.000063 383.235875,502.030875 C383.221,502.053187 383.207187,502.0755 383.193375,502.098875 C383.175313,502.129687 383.159375,502.161563 383.143438,502.195562 C383.132812,502.217875 383.121125,502.242312 383.111562,502.26675 C383.096688,502.301812 383.085,502.336875 383.073313,502.373 C383.065875,502.396375 383.057375,502.41975 383.051,502.444187 C383.040375,502.4835 383.032938,502.524937 383.0255,502.566375 C383.02125,502.587625 383.015938,502.607813 383.013812,502.630125 C383.005313,502.69175 383,502.7555 383,502.820312 L383,513.179688 C383,513.243438 383.005313,513.307188 383.013812,513.370937 C383.015938,513.391125 383.02125,513.412375 383.0255,513.433625 C383.032938,513.475062 383.040375,513.515437 383.051,513.555813 C383.057375,513.58025 383.065875,513.603625 383.073313,513.627 C383.085,513.662063 383.096688,513.698188 383.111562,513.734312 C383.121125,513.757687 383.132812,513.781062 383.143438,513.804437 C383.159375,513.837375 383.175313,513.86925 383.193375,513.902187 C383.207187,513.9245 383.221,513.946812 383.235875,513.969125 C383.255,513.999937 383.275188,514.028625 383.296438,514.057312 C383.312375,514.079625 383.329375,514.100875 383.347438,514.121062 C383.36975,514.147625 383.394187,514.17525 383.419688,514.199687 C383.438813,514.219875 383.457937,514.239 383.478125,514.257062 C383.504688,514.2815 383.532312,514.304875 383.561,514.327188 C383.58225,514.344187 383.6035,514.361187 383.626875,514.377125 C383.635375,514.382438 383.642812,514.389875 383.651313,514.395188 L399.189313,524.754563 C399.43475,524.918188 399.717375,525 400,525 C400.282625,525 400.56525,524.918188 400.810687,524.754563 L416.34975,514.395188 C416.35825,514.389875 416.365688,514.382438 416.374188,514.377125 C416.3965,514.361187 416.41775,514.344187 416.440063,514.327188 C416.467688,514.304875 416.495312,514.2815 416.522938,514.257062 C416.543125,514.239 416.561187,514.219875 416.580312,514.199687 C416.605813,514.17525 416.63025,514.147625 416.653625,514.121062 C416.670625,514.100875 416.687625,514.079625 416.703562,514.057312 C416.725875,514.028625 416.746062,513.999937 416.765188,513.969125 C416.779,513.946812 416.793875,513.9245 416.806625,513.902187 C416.82575,513.86925 416.841687,513.837375 416.856562,513.804437 C416.86825,513.781062 416.879937,513.757687 416.8895,513.734312 C416.903312,513.698188 416.915,513.662063 416.926687,513.627 C416.934125,513.603625 416.943688,513.58025 416.950062,513.555813 C416.960688,513.515437 416.968125,513.475062 416.975562,513.433625 C416.97875,513.412375 416.984062,513.391125 416.98725,513.370937 C416.99575,513.307188 417,513.243438 417,513.179688 L417,502.820312 C417,502.7555 416.99575,502.69175 416.98725,502.630125 L416.98725,502.630125 Z" id="Fill-65"></path>
        </g>
    </g>
</svg>