<?xml version="1.0" encoding="UTF-8"?>
<svg width="32px" height="32px" viewBox="0 0 32 32" version="1.1" xmlns="http://www.w3.org/2000/svg" xmlns:xlink="http://www.w3.org/1999/xlink">
    <!-- Generator: Sketch 55.2 (78181) - https://sketchapp.com -->
    <title>Fill 9</title>
    <desc>Created with Sketch.</desc>
    <g id="Design" stroke="none" stroke-width="1" fill="none" fill-rule="evenodd">
        <g id="Desktop" transform="translate(-828.000000, -4699.000000)" fill="#FFFFFF">
            <path d="M854.579,4706.378 C854.291,4706.768 852.001,4709.704 846.948,4711.767 C847.266,4712.417 847.571,4713.08 847.854,4713.746 C847.955,4713.982 848.053,4714.217 848.149,4714.451 C852.696,4713.88 857.215,4714.796 857.665,4714.891 C857.635,4711.666 856.482,4708.704 854.579,4706.378 M840.798,4701.734 C841.175,4702.24 843.658,4705.62 845.897,4709.734 C850.757,4707.913 852.814,4705.148 853.06,4704.798 C850.646,4702.656 847.473,4701.354 844,4701.354 C842.898,4701.354 841.825,4701.486 840.798,4701.734 M830.623,4712.221 C831.234,4712.229 836.864,4712.254 843.257,4710.556 C840.993,4706.531 838.55,4703.146 838.19,4702.652 C834.367,4704.456 831.509,4707.98 830.623,4712.221 M833.847,4724.158 C834.157,4723.628 837.907,4717.418 844.956,4715.14 C845.134,4715.082 845.314,4715.028 845.494,4714.977 C845.151,4714.201 844.778,4713.424 844.386,4712.658 C837.561,4714.7 830.939,4714.615 830.341,4714.603 C830.337,4714.742 830.334,4714.881 830.334,4715.02 C830.334,4718.53 831.664,4721.735 833.847,4724.158 M849.339,4727.601 C849.135,4726.402 848.342,4722.223 846.423,4717.237 C846.393,4717.247 846.363,4717.257 846.333,4717.267 C838.625,4719.953 835.858,4725.299 835.612,4725.802 C837.929,4727.609 840.841,4728.687 844,4728.687 C845.893,4728.687 847.698,4728.3 849.339,4727.601 M857.494,4717.19 C857.026,4717.042 853.264,4715.92 848.981,4716.605 C850.769,4721.517 851.496,4725.518 851.636,4726.349 C854.702,4724.276 856.885,4720.992 857.494,4717.19 M844,4731 C835.178,4731 828,4723.822 828,4715 C828,4706.177 835.178,4699 844,4699 C852.823,4699 860,4706.177 860,4715 C860,4723.822 852.823,4731 844,4731" id="Fill-9"></path>
        </g>
    </g>
</svg>