<?xml version="1.0" encoding="UTF-8"?>
<svg width="34px" height="34px" viewBox="0 0 34 34" version="1.1" xmlns="http://www.w3.org/2000/svg" xmlns:xlink="http://www.w3.org/1999/xlink">
    <!-- Generator: Sketch 52.5 (67469) - http://www.bohemiancoding.com/sketch -->
    <title>Fill 34</title>
    <desc>Created with Sketch.</desc>
    <g id="Design" stroke="none" stroke-width="1" fill="none" fill-rule="evenodd">
        <g id="Contact" transform="translate(-329.000000, -491.000000)" fill="#FFFFFF">
            <path d="M345.998938,491 C336.61175,491 329,498.622025 329,508.026389 C329,515.547326 333.8705,521.928631 340.626937,524.18023 C341.476938,524.33665 341.787188,523.810994 341.787188,523.359822 C341.787188,522.955471 341.772312,521.885004 341.763813,520.464453 C337.034625,521.493421 336.036937,518.181995 336.036937,518.181995 C335.2645,516.21557 334.149937,515.692042 334.149937,515.692042 C332.606125,514.635407 334.266813,514.656689 334.266813,514.656689 C335.972125,514.77693 336.869937,516.411362 336.869937,516.411362 C338.387187,519.013044 340.849,518.261802 341.818,517.825528 C341.972062,516.725266 342.411937,515.975088 342.8975,515.549455 C339.122437,515.119565 335.154,513.659644 335.154,507.135752 C335.154,505.276799 335.815938,503.757289 336.903937,502.56658 C336.728625,502.135627 336.145312,500.405428 337.069687,498.061254 C337.069687,498.061254 338.497687,497.603698 341.744687,499.806349 C343.1015,499.4286 344.555,499.240257 346.001062,499.232809 C347.445,499.240257 348.899563,499.4286 350.257437,499.806349 C353.502313,497.603698 354.927125,498.061254 354.927125,498.061254 C355.854688,500.405428 355.271375,502.135627 355.096063,502.56658 C356.186187,503.757289 356.843875,505.276799 356.843875,507.135752 C356.843875,513.675605 352.869062,515.115309 349.082313,515.536686 C349.692187,516.062343 350.236187,517.100887 350.236187,518.689563 C350.236187,520.965636 350.214937,522.801179 350.214937,523.359822 C350.214937,523.81525 350.520938,524.345163 351.383688,524.178102 C358.13375,521.922247 363,515.545198 363,508.026389 C363,498.622025 355.38825,491 345.998938,491" id="Fill-34"></path>
        </g>
    </g>
</svg>