<?xml version="1.0" encoding="UTF-8"?>
<svg width="32px" height="32px" viewBox="0 0 32 32" version="1.1" xmlns="http://www.w3.org/2000/svg" xmlns:xlink="http://www.w3.org/1999/xlink">
    <!-- Generator: Sketch 55.2 (78181) - https://sketchapp.com -->
    <title>Fill 33</title>
    <desc>Created with Sketch.</desc>
    <g id="Design" stroke="none" stroke-width="1" fill="none" fill-rule="evenodd">
        <g id="Desktop" transform="translate(-887.000000, -4699.000000)" fill="#FFFFFF">
            <path d="M914.269,4726.267 L909.523,4726.267 L909.523,4718.841 C909.523,4717.07 909.493,4714.792 907.057,4714.792 C904.588,4714.792 904.211,4716.722 904.211,4718.714 L904.211,4726.267 L899.47,4726.267 L899.47,4710.996 L904.02,4710.996 L904.02,4713.084 L904.085,4713.084 C904.718,4711.883 906.266,4710.617 908.575,4710.617 C913.381,4710.617 914.269,4713.779 914.269,4717.892 L914.269,4726.267 Z M894.119,4708.91 C892.594,4708.91 891.365,4707.677 891.365,4706.157 C891.365,4704.638 892.594,4703.405 894.119,4703.405 C895.637,4703.405 896.87,4704.638 896.87,4706.157 C896.87,4707.677 895.637,4708.91 894.119,4708.91 L894.119,4708.91 Z M896.493,4726.267 L891.742,4726.267 L891.742,4710.996 L896.493,4710.996 L896.493,4726.267 Z M917.667,4699 L888.334,4699 C887.597,4699 887,4699.597 887,4700.333 L887,4729.666 C887,4730.403 887.597,4731 888.334,4731 L917.667,4731 C918.403,4731 919,4730.403 919,4729.666 L919,4700.333 C919,4699.597 918.403,4699 917.667,4699 L917.667,4699 Z" id="Fill-33"></path>
        </g>
    </g>
</svg>