<?xml version="1.0" encoding="UTF-8"?>
<svg width="34px" height="28px" viewBox="0 0 34 28" version="1.1" xmlns="http://www.w3.org/2000/svg" xmlns:xlink="http://www.w3.org/1999/xlink">
    <!-- Generator: Sketch 52.5 (67469) - http://www.bohemiancoding.com/sketch -->
    <title>Fill 1</title>
    <desc>Created with Sketch.</desc>
    <g id="Design" stroke="none" stroke-width="1" fill="none" fill-rule="evenodd">
        <g id="Contact" transform="translate(-277.000000, -494.000000)" fill="#FFFFFF">
            <path d="M311,497.314724 C309.749437,497.87687 308.404313,498.257018 306.993313,498.428247 C308.434062,497.55272 309.540125,496.167816 310.06075,494.516916 C308.7135,495.326751 307.219625,495.914743 305.631188,496.232431 C304.358313,494.858296 302.545687,494 300.539688,494 C296.687063,494 293.564375,497.165033 293.564375,501.069903 C293.564375,501.623434 293.626,502.162965 293.745,502.680958 C287.946937,502.385885 282.807625,499.570847 279.36725,495.293367 C278.766937,496.337968 278.422687,497.55272 278.422687,498.848241 C278.422687,501.300361 279.654125,503.464947 281.525188,504.732468 C280.381937,504.695853 279.306688,504.378165 278.366375,503.848326 C278.365313,503.87848 278.365313,503.907556 278.365313,503.93771 C278.365313,507.363355 280.76975,510.220393 283.9615,510.869768 C283.376062,511.031305 282.759813,511.117457 282.123375,511.117457 C281.673938,511.117457 281.23725,511.073304 280.811188,510.991459 C281.698375,513.800036 284.274938,515.844008 287.3275,515.901084 C284.940063,517.797519 281.932125,518.927196 278.663875,518.927196 C278.10075,518.927196 277.546125,518.893812 277,518.829197 C280.086563,520.834401 283.75325,522.005 287.693,522.005 C300.52375,522.005 307.539438,511.231609 307.539438,501.88943 C307.539438,501.582511 307.533062,501.277746 307.51925,500.974058 C308.882437,499.977918 310.065,498.733012 311,497.314724" id="Fill-1"></path>
        </g>
    </g>
</svg>